<?xml version="1.0" encoding="utf-8"?><!DOCTYPE svg PUBLIC "-//W3C//DTD SVG 1.1//EN" "http://www.w3.org/Graphics/SVG/1.1/DTD/svg11.dtd"><svg xmlns="http://www.w3.org/2000/svg" viewBox="0 0 61 61" shape-rendering="crispEdges"><path fill="#FFFFFF" d="M0 0h61v61H0z"/><path stroke="#123E61" d="M4 4.5h7m3 0h1m2 0h2m1 0h2m2 0h2m1 0h6m1 0h6m2 0h1m3 0h1m3 0h7M4 5.5h1m5 0h1m2 0h4m1 0h1m5 0h3m2 0h4m1 0h1m2 0h1m1 0h1m3 0h2m1 0h2m2 0h1m5 0h1M4 6.5h1m1 0h3m1 0h1m1 0h2m1 0h2m3 0h2m1 0h12m2 0h1m1 0h3m1 0h1m3 0h1m2 0h1m1 0h3m1 0h1M4 7.5h1m1 0h3m1 0h1m1 0h2m1 0h4m4 0h5m1 0h1m1 0h1m1 0h1m1 0h4m1 0h1m2 0h4m1 0h1m1 0h1m1 0h3m1 0h1M4 8.5h1m1 0h3m1 0h1m5 0h1m3 0h1m1 0h1m2 0h2m1 0h6m2 0h1m3 0h3m3 0h1m3 0h1m1 0h3m1 0h1M4 9.5h1m5 0h1m3 0h4m1 0h2m1 0h2m3 0h2m3 0h2m4 0h3m1 0h5m3 0h1m5 0h1M4 10.5h7m1 0h1m1 0h1m1 0h1m1 0h1m1 0h1m1 0h1m1 0h1m1 0h1m1 0h1m1 0h1m1 0h1m1 0h1m1 0h1m1 0h1m1 0h1m1 0h1m1 0h1m1 0h1m1 0h1m1 0h7M14 11.5h1m1 0h3m3 0h1m1 0h1m3 0h1m3 0h1m4 0h1m5 0h3M7 12.5h2m1 0h2m1 0h1m3 0h1m1 0h1m1 0h2m1 0h1m1 0h1m1 0h5m1 0h1m3 0h3m3 0h1m3 0h1m4 0h2M4 13.5h4m3 0h1m1 0h1m1 0h2m3 0h2m2 0h2m3 0h1m5 0h2m2 0h1m1 0h3m1 0h2m1 0h4m1 0h1M5 14.5h2m1 0h4m1 0h1m1 0h1m1 0h1m3 0h4m2 0h1m2 0h8m6 0h1m2 0h1m1 0h2m1 0h2M4 15.5h2m1 0h2m2 0h1m1 0h1m1 0h2m4 0h2m1 0h1m1 0h2m1 0h4m2 0h1m2 0h1m2 0h2m1 0h3m3 0h1m2 0h1m1 0h2M4 16.5h1m1 0h1m2 0h2m2 0h2m2 0h1m2 0h1m1 0h2m3 0h1m1 0h1m2 0h2m1 0h2m3 0h1m2 0h2m7 0h1M4 17.5h1m3 0h2m1 0h1m5 0h1m1 0h1m1 0h1m1 0h1m2 0h1m2 0h2m3 0h7m1 0h1m1 0h3m1 0h2m1 0h6M5 18.5h1m3 0h3m1 0h1m1 0h2m3 0h3m4 0h1m2 0h1m1 0h1m2 0h1m1 0h3m1 0h2m6 0h1m2 0h1m3 0h1M5 19.5h1m1 0h2m2 0h3m1 0h1m1 0h1m1 0h3m2 0h1m1 0h5m2 0h2m1 0h1m1 0h2m1 0h3m1 0h2m1 0h3m2 0h2m1 0h1M6 20.5h3m1 0h2m2 0h1m2 0h1m1 0h1m8 0h1m3 0h1m1 0h1m2 0h1m2 0h1m2 0h1m1 0h3m1 0h1m1 0h3m2 0h1M6 21.5h1m1 0h1m2 0h1m2 0h1m3 0h1m1 0h2m1 0h1m2 0h2m3 0h1m1 0h2m2 0h2m1 0h2m4 0h1m2 0h6M4 22.5h1m2 0h5m1 0h2m1 0h2m1 0h2m1 0h1m5 0h2m1 0h3m2 0h2m1 0h1m2 0h4m2 0h1m2 0h2m1 0h1m1 0h1M4 23.5h1m1 0h1m1 0h2m1 0h3m2 0h1m1 0h1m2 0h1m2 0h1m2 0h1m1 0h1m3 0h1m1 0h2m1 0h1m1 0h1m2 0h1m1 0h2m2 0h2m2 0h2m1 0h1M5 24.5h3m1 0h2m1 0h2m1 0h1m2 0h1m1 0h2m1 0h3m1 0h1m1 0h1m1 0h1m1 0h1m1 0h2m2 0h1m1 0h2m1 0h3m1 0h5m1 0h1M4 25.5h2m1 0h1m3 0h1m1 0h1m1 0h1m2 0h1m2 0h2m3 0h1m1 0h1m2 0h3m2 0h2m3 0h1m1 0h8m1 0h1m1 0h1M4 26.5h1m2 0h1m1 0h4m2 0h2m2 0h1m1 0h2m1 0h2m1 0h4m3 0h1m1 0h1m5 0h1m1 0h1m4 0h2m1 0h3M5 27.5h1m8 0h1m5 0h1m1 0h1m6 0h3m2 0h3m1 0h2m5 0h3m1 0h1m1 0h1m1 0h1m1 0h1M6 28.5h9m1 0h1m2 0h2m1 0h3m1 0h1m1 0h5m3 0h2m2 0h3m1 0h2m2 0h6M5 29.5h4m3 0h2m3 0h1m2 0h1m4 0h1m1 0h2m3 0h2m1 0h4m1 0h1m1 0h3m1 0h1m1 0h1m3 0h1m3 0h1M4 30.5h1m2 0h2m1 0h1m1 0h2m2 0h1m2 0h2m1 0h1m3 0h3m1 0h1m1 0h1m1 0h2m2 0h1m1 0h3m2 0h1m2 0h1m1 0h1m1 0h2m2 0h1M6 31.5h3m3 0h1m3 0h2m2 0h3m1 0h1m3 0h1m3 0h2m3 0h1m4 0h2m2 0h1m1 0h1m3 0h3m1 0h1M4 32.5h10m3 0h1m2 0h1m2 0h2m1 0h1m1 0h6m3 0h2m1 0h3m4 0h9M4 33.5h1m1 0h1m1 0h1m8 0h1m2 0h1m3 0h2m2 0h1m3 0h1m1 0h1m2 0h1m2 0h2m1 0h2m1 0h1m1 0h1m1 0h1m1 0h1m1 0h1M5 34.5h3m1 0h5m1 0h1m1 0h4m1 0h1m1 0h4m1 0h1m1 0h1m3 0h2m1 0h4m2 0h2m1 0h1m2 0h2m1 0h2m1 0h1M4 35.5h4m5 0h1m2 0h2m2 0h2m2 0h2m1 0h6m2 0h1m2 0h1m2 0h2m1 0h1m5 0h1m1 0h1m1 0h2M4 36.5h1m2 0h4m1 0h1m1 0h1m1 0h2m1 0h1m1 0h7m3 0h1m1 0h1m3 0h6m1 0h1m2 0h2m5 0h1m1 0h1M4 37.5h2m1 0h2m2 0h1m1 0h2m6 0h1m2 0h2m1 0h4m1 0h1m1 0h2m4 0h3m3 0h2m1 0h4m1 0h1M5 38.5h3m1 0h2m1 0h2m5 0h3m1 0h1m2 0h2m1 0h1m1 0h1m1 0h1m4 0h1m1 0h1m3 0h2m1 0h2m2 0h1m1 0h1M5 39.5h1m1 0h3m3 0h2m1 0h11m1 0h1m1 0h4m2 0h3m7 0h5m4 0h2M4 40.5h3m1 0h3m2 0h1m1 0h1m1 0h2m3 0h2m5 0h2m1 0h1m1 0h3m2 0h2m3 0h1m2 0h1m2 0h1m2 0h1M4 41.5h4m3 0h1m1 0h1m3 0h1m1 0h2m1 0h1m2 0h1m4 0h1m3 0h2m1 0h4m1 0h1m1 0h5m1 0h7M6 42.5h3m1 0h1m1 0h1m2 0h6m3 0h1m1 0h5m1 0h1m1 0h1m1 0h10m4 0h1m1 0h1m2 0h2M5 43.5h1m2 0h1m3 0h1m3 0h1m1 0h1m2 0h1m1 0h1m7 0h2m1 0h3m1 0h1m2 0h2m3 0h2m1 0h1m1 0h5M9 44.5h2m3 0h1m1 0h1m3 0h6m1 0h1m4 0h1m2 0h2m2 0h5m5 0h1m3 0h1m2 0h1M4 45.5h2m1 0h1m1 0h1m1 0h3m4 0h4m1 0h1m2 0h3m3 0h1m3 0h1m1 0h1m2 0h1m1 0h1m1 0h4m3 0h2M4 46.5h2m1 0h5m2 0h1m1 0h1m1 0h1m1 0h6m3 0h2m1 0h1m1 0h3m1 0h1m1 0h2m3 0h1m3 0h2m3 0h1m1 0h1M5 47.5h2m5 0h2m1 0h2m2 0h5m1 0h5m1 0h1m1 0h1m1 0h1m5 0h2m1 0h2m4 0h2m2 0h1M7 48.5h1m2 0h2m1 0h4m3 0h1m4 0h1m2 0h13m1 0h1m1 0h2m1 0h6m1 0h2M12 49.5h2m1 0h1m1 0h2m5 0h1m1 0h1m1 0h1m3 0h1m1 0h1m2 0h3m1 0h3m1 0h2m1 0h1m3 0h1m1 0h1M4 50.5h7m1 0h1m1 0h3m2 0h1m6 0h1m1 0h1m1 0h1m1 0h1m1 0h1m3 0h3m3 0h1m3 0h1m1 0h1m1 0h1m1 0h1M4 51.5h1m5 0h1m2 0h1m1 0h1m1 0h2m1 0h1m1 0h1m3 0h3m3 0h5m2 0h1m1 0h3m4 0h1m3 0h2m1 0h1M4 52.5h1m1 0h3m1 0h1m1 0h2m1 0h3m1 0h3m3 0h1m1 0h6m2 0h3m2 0h1m2 0h2m1 0h7M4 53.5h1m1 0h3m1 0h1m1 0h1m1 0h1m3 0h7m1 0h1m3 0h3m3 0h2m1 0h1m2 0h1m2 0h3m1 0h2m4 0h1M4 54.5h1m1 0h3m1 0h1m4 0h1m1 0h1m2 0h1m2 0h2m1 0h6m3 0h1m1 0h3m2 0h5m2 0h1m1 0h2m3 0h1M4 55.5h1m5 0h1m2 0h1m7 0h2m1 0h1m1 0h3m1 0h1m1 0h1m3 0h5m1 0h1m2 0h4m1 0h5m1 0h1M4 56.5h7m2 0h2m1 0h1m2 0h2m1 0h1m1 0h4m2 0h1m3 0h3m2 0h4m2 0h4m1 0h2m1 0h1"/></svg>
